<svg xmlns="http://www.w3.org/2000/svg" width="1200" height="630" viewBox="0 0 1200 630" role="img" aria-labelledby="title desc">
  <title id="title">DC Metro Exit Guide</title>
  <desc id="desc">Preview card showing station, line, direction, and a car-door result.</desc>
  <rect width="1200" height="630" fill="#111722"/>
  <path d="M0 126H1200M0 252H1200M0 378H1200M0 504H1200" stroke="#223149" stroke-width="2"/>
  <path d="M120 0V630M240 0V630M360 0V630M480 0V630M600 0V630M720 0V630M840 0V630M960 0V630M1080 0V630" stroke="#1b2638" stroke-width="2"/>
  <rect x="86" y="76" width="1028" height="478" rx="28" fill="#182131" stroke="#334155" stroke-width="3"/>
  <text x="126" y="158" fill="#f3efe6" font-family="Arial, Helvetica, sans-serif" font-size="64" font-weight="700">DC Metro Exit Guide</text>
  <text x="128" y="214" fill="#b9c0cc" font-family="Arial, Helvetica, sans-serif" font-size="30">Find the right car and door before you board</text>
  <g transform="translate(128 278)">
    <rect width="944" height="166" rx="18" fill="#202a3b" stroke="#41516a" stroke-width="2"/>
    <text x="34" y="54" fill="#8fb9dc" font-family="Arial, Helvetica, sans-serif" font-size="28" font-weight="700">Station</text>
    <text x="34" y="102" fill="#f3efe6" font-family="Arial, Helvetica, sans-serif" font-size="40">Metro Center</text>
    <circle cx="402" cy="82" r="28" fill="#c60c30"/>
    <text x="402" y="94" text-anchor="middle" fill="#ffffff" font-family="Arial, Helvetica, sans-serif" font-size="28" font-weight="700">RD</text>
    <text x="460" y="72" fill="#b9c0cc" font-family="Arial, Helvetica, sans-serif" font-size="25">Toward Shady Grove</text>
    <text x="460" y="112" fill="#f3efe6" font-family="Arial, Helvetica, sans-serif" font-size="32">Car 4, Door 2</text>
    <rect x="716" y="42" width="190" height="80" rx="14" fill="#e0a15f"/>
    <text x="811" y="92" text-anchor="middle" fill="#111722" font-family="Arial, Helvetica, sans-serif" font-size="28" font-weight="700">Door 11</text>
  </g>
  <text x="128" y="505" fill="#b9c0cc" font-family="Arial, Helvetica, sans-serif" font-size="24">Offline after first load. No account. No ads. No tracking.</text>
</svg>
